<svg width="128" height="128" viewBox="0 0 128 128" fill="none" xmlns="http://www.w3.org/2000/svg">
<path d="M64.447 25.1501C92.8878 25.1501 116.042 49.9214 116.042 80.6033V92.7683H12.8533V80.6033C12.8533 49.9213 36.0063 25.1503 64.447 25.1501Z" fill="#FFDC64" stroke="#223180" stroke-width="1.6421"/>
<path d="M64.4473 25.1501C72.202 25.1501 79.5552 26.9917 86.1553 30.2869L78.3262 79.0447C78.0494 80.7655 76.6808 81.947 75.1631 81.947H53.7324C52.2146 81.947 50.8457 80.7651 50.5693 79.0447L46.3271 52.6326C46.16 51.5919 45.3751 50.9365 44.5098 50.8298C43.637 50.7223 42.7156 51.1793 42.3408 52.1814C39.21 60.5514 37.419 70.2545 37.4189 80.6033V91.4255C37.4189 93.0183 38.6352 94.4109 40.2559 94.4109H118.879C119.485 94.4111 120.073 94.9572 120.073 95.7546V98.5134C120.073 99.1451 119.708 99.6409 119.248 99.8025C104.934 104.827 85.6716 107.92 64.4473 107.92C43.223 107.92 23.96 104.827 9.64648 99.8025C9.18588 99.6407 8.82138 99.1444 8.82129 98.5134V95.7537C8.82149 94.9563 9.40999 94.4111 10.0156 94.4109H12.8535V80.6033C12.8535 58.5223 24.8779 39.5206 42.2158 30.5984L42.2285 30.5925V30.5916L42.2383 30.5867C42.245 30.5831 42.2551 30.5777 42.2676 30.571C42.2929 30.5575 42.3295 30.5378 42.373 30.5144C42.4604 30.4676 42.5773 30.4047 42.6953 30.3416C42.8134 30.2783 42.9326 30.2147 43.0244 30.1658L43.167 30.0964C49.6594 26.9307 56.8573 25.1501 64.4473 25.1501Z" fill="#FFC850" stroke="#223180" stroke-width="1.6421"/>
<path d="M58.5413 20.8213H70.3538C72.1146 20.8213 73.6283 22.4087 73.5627 24.4512L71.8245 78.5615C71.7622 80.5031 70.2936 81.9463 68.6155 81.9463H60.2786C58.6005 81.9461 57.1328 80.503 57.0706 78.5615L55.3323 24.4512C55.2667 22.4087 56.7804 20.8213 58.5413 20.8213Z" fill="#FFF082" stroke="#223180" stroke-width="1.6421"/>
<path d="M120.073 98.5129C120.073 99.1444 119.709 99.6401 119.248 99.802C104.934 104.827 85.6714 107.92 64.4473 107.92C43.2231 107.92 23.9601 104.827 9.64648 99.802C9.18578 99.6402 8.82129 99.1442 8.82129 98.5129V97.0999C8.93558 97.1436 9.05368 97.1818 9.1748 97.2122C23.6747 100.848 43.1026 103.069 64.4473 103.069C85.7919 103.069 105.219 100.848 119.72 97.2122C119.841 97.1818 119.959 97.1436 120.073 97.0999V98.5129Z" fill="#FFDC64" stroke="#223180" stroke-width="1.6421"/>
<path d="M58.5415 20.8218H60.5669C60.5541 20.8411 60.5403 20.8598 60.5278 20.8794C59.9094 21.8473 59.565 23.1316 59.5962 24.4966L60.8306 78.6069C60.8595 79.8747 61.2091 81.0515 61.7993 81.9468H60.2788C58.6009 81.9466 57.1321 80.5034 57.0698 78.562L55.3325 24.4517C55.2669 22.4092 56.7807 20.8218 58.5415 20.8218Z" fill="#FFDC64" stroke="#223180" stroke-width="1.6421"/>
</svg>
